<svg width="20" height="20" viewBox="0 0 20 20" fill="none" xmlns="http://www.w3.org/2000/svg">
<path d="M19.6875 10C19.6875 15.3516 15.3516 19.6875 10 19.6875C4.64844 19.6875 0.3125 15.3516 0.3125 10C0.3125 4.64844 4.64844 0.3125 10 0.3125C15.3516 0.3125 19.6875 4.64844 19.6875 10ZM8.28125 5.46875V10H5.51172C5.09375 10 4.88281 10.5078 5.17969 10.8008L9.66797 15.2656C9.85156 15.4492 10.1445 15.4492 10.3281 15.2656L14.8164 10.8008C15.1133 10.5039 14.9023 10 14.4844 10H11.7188V5.46875C11.7188 5.21094 11.5078 5 11.25 5H8.75C8.49219 5 8.28125 5.21094 8.28125 5.46875Z" fill="white"/>
</svg>
