<svg xmlns="http://www.w3.org/2000/svg" width="21" height="20" viewBox="0 0 21 20" fill="none">
    <path d="M13.7654 8.33301H6.97527C6.50845 8.33301 6.12651 8.70801 6.12651 9.16634C6.12651 9.62467 6.50845 9.99967 6.97527 9.99967H13.7654C14.2322 9.99967 14.6142 9.62467 14.6142 9.16634C14.6142 8.70801 14.2322 8.33301 13.7654 8.33301ZM16.3117 2.49967H15.4629V1.66634C15.4629 1.20801 15.081 0.833008 14.6142 0.833008C14.1473 0.833008 13.7654 1.20801 13.7654 1.66634V2.49967H6.97527V1.66634C6.97527 1.20801 6.59333 0.833008 6.12651 0.833008C5.65969 0.833008 5.27774 1.20801 5.27774 1.66634V2.49967H4.42898C3.48685 2.49967 2.73145 3.24967 2.73145 4.16634V15.833C2.73145 16.7497 3.48685 17.4997 4.42898 17.4997H16.3117C17.2453 17.4997 18.0092 16.7497 18.0092 15.833V4.16634C18.0092 3.24967 17.2453 2.49967 16.3117 2.49967ZM15.4629 15.833H5.27774C4.81092 15.833 4.42898 15.458 4.42898 14.9997V6.66634H16.3117V14.9997C16.3117 15.458 15.9297 15.833 15.4629 15.833ZM11.2191 11.6663H6.97527C6.50845 11.6663 6.12651 12.0413 6.12651 12.4997C6.12651 12.958 6.50845 13.333 6.97527 13.333H11.2191C11.6859 13.333 12.0679 12.958 12.0679 12.4997C12.0679 12.0413 11.6859 11.6663 11.2191 11.6663Z" fill="#555555"/>
</svg>