<svg width="98" height="98" viewBox="0 0 98 98" fill="none" xmlns="http://www.w3.org/2000/svg">
<path d="M76.7734 45.2264H67.76C67.76 39.2501 65.3859 33.5186 61.16 29.2927C56.9342 25.0669 51.2027 22.6928 45.2264 22.6928V13.6794C53.5932 13.6794 61.6173 17.0031 67.5335 22.9193C73.4497 28.8355 76.7734 36.8596 76.7734 45.2264ZM91.6005 98L73.5736 79.9731C64.6197 87.2855 53.1983 90.8773 41.6708 90.0061C30.1433 89.1349 19.3914 83.8672 11.6383 75.2922C3.88509 66.7173 -0.27639 55.4908 0.0142611 43.9341C0.304912 32.3774 5.02547 21.3743 13.1999 13.1999C21.3743 5.02547 32.3774 0.304912 43.9341 0.0142611C55.4908 -0.27639 66.7173 3.88509 75.2922 11.6383C83.8672 19.3914 89.1349 30.1433 90.0061 41.6708C90.8773 53.1983 87.2855 64.6197 79.9731 73.5736L98 91.6005L91.6005 98ZM45.2264 81.2801C52.3571 81.2801 59.3278 79.1656 65.2568 75.2039C71.1858 71.2423 75.8069 65.6115 78.5357 59.0235C81.2645 52.4356 81.9785 45.1864 80.5873 38.1927C79.1962 31.1989 75.7624 24.7748 70.7202 19.7326C65.678 14.6904 59.2538 11.2566 52.2601 9.86544C45.2664 8.4743 38.0172 9.18828 31.4292 11.9171C24.8413 14.6459 19.2105 19.267 15.2488 25.196C11.2872 31.125 9.17268 38.0956 9.17268 45.2264C9.17268 54.7884 12.9712 63.9588 19.7326 70.7202C26.4939 77.4816 35.6643 81.2801 45.2264 81.2801Z" fill="#084337"/>
</svg>
